<?xml version="1.0" standalone="no"?>
<!DOCTYPE svg PUBLIC "-//W3C//DTD SVG 20010904//EN"
 "http://www.w3.org/TR/2001/REC-SVG-20010904/DTD/svg10.dtd">
<svg version="1.0" xmlns="http://www.w3.org/2000/svg"
 width="1280.000000pt" height="1273.000000pt" viewBox="0 0 1280.000000 1273.000000"
 preserveAspectRatio="xMidYMid meet">
<metadata>
Created by potrace 1.16, written by Peter Selinger 2001-2019
</metadata>
<g transform="translate(0.000000,1273.000000) scale(0.100000,-0.100000)"
fill="#000000" stroke="none">
<path d="M6140 11199 c-772 -74 -1423 -276 -2058 -640 -678 -389 -1308 -997
-1716 -1657 -29 -46 -34 -54 -121 -207 -228 -399 -404 -864 -510 -1352 -74
-339 -105 -631 -105 -989 l0 -251 -38 -26 c-118 -78 -212 -223 -302 -468 -81
-221 -110 -382 -110 -614 0 -361 93 -638 277 -823 35 -34 63 -64 63 -65 0 -2
-20 -24 -44 -49 -53 -55 -110 -167 -126 -245 -7 -33 -10 -97 -8 -148 8 -150
55 -218 215 -313 105 -62 307 -207 372 -265 25 -23 98 -92 161 -154 75 -71
127 -114 146 -118 16 -4 34 -8 40 -10 6 -2 14 -23 18 -46 10 -64 39 -107 129
-195 168 -164 417 -349 521 -389 30 -12 46 -24 50 -40 13 -53 91 -105 286
-193 76 -34 94 -36 180 -17 20 4 29 -1 45 -27 11 -18 36 -43 55 -56 31 -21 43
-23 102 -19 71 5 189 52 256 103 40 31 72 92 72 139 0 25 4 35 13 33 8 -3 14
-40 18 -114 3 -60 11 -126 18 -146 13 -41 68 -94 106 -104 13 -3 88 -4 167 -2
123 3 149 7 184 25 22 12 46 28 53 36 17 21 47 10 79 -29 39 -47 78 -64 148
-64 42 0 85 -9 141 -30 45 -16 159 -51 254 -79 315 -89 539 -133 899 -173 156
-17 777 -17 930 0 665 76 1179 224 1730 498 642 320 1200 772 1650 1338 453
569 781 1247 939 1940 209 913 160 1834 -142 2721 -154 451 -435 978 -730
1369 -522 691 -1313 1284 -2137 1599 -605 231 -1140 328 -1795 326 -159 -1
-328 -5 -375 -10z m1275 -360 c1490 -129 2806 -1101 3425 -2529 183 -421 298
-869 346 -1345 19 -191 22 -623 5 -800 -57 -591 -202 -1110 -453 -1610 -107
-215 -155 -291 -194 -310 -68 -32 -147 -7 -180 56 -18 35 -17 62 10 214 20
113 31 336 21 439 l-7 79 -109 -111 c-103 -105 -182 -162 -223 -162 -19 0 -41
-41 -50 -92 -5 -26 0 -59 15 -109 27 -89 22 -167 -16 -259 -38 -89 -54 -152
-61 -241 -8 -87 6 -141 38 -156 19 -8 16 -11 -31 -34 l-51 -26 -10 36 c-16 60
-12 205 9 289 25 97 42 302 39 454 -3 138 2 150 102 210 72 44 178 143 247
231 73 94 146 114 189 50 50 -74 76 -373 51 -588 -5 -44 -5 -66 1 -60 37 39
214 426 286 627 48 132 114 366 151 531 106 480 125 1054 50 1562 -172 1164
-839 2229 -1796 2866 -428 285 -863 470 -1359 577 -518 113 -1113 110 -1640
-8 -195 -43 -568 -162 -627 -200 -17 -11 -17 -11 2 -5 35 12 512 17 700 8 250
-13 268 -24 285 -177 22 -189 89 -275 265 -336 91 -32 168 -74 305 -165 145
-97 179 -115 213 -115 48 1 89 59 127 183 34 108 54 132 103 124 19 -3 149
-40 291 -82 141 -42 287 -83 324 -90 125 -27 281 -38 473 -33 l189 4 0 -51 c0
-136 47 -301 145 -510 68 -144 139 -253 236 -359 39 -44 87 -103 105 -132 47
-73 88 -202 118 -369 14 -77 32 -163 41 -190 8 -28 15 -51 15 -52 0 0 -9 1
-20 4 -11 3 -38 -5 -61 -16 -26 -14 -45 -19 -51 -13 -5 5 -18 56 -28 113 -28
161 -92 407 -120 459 -6 12 -52 65 -101 117 -202 218 -335 482 -384 767 -16
96 -30 126 -71 152 -22 15 -48 16 -232 10 -271 -9 -394 7 -561 73 -62 25 -275
81 -305 81 -17 0 -26 -14 -44 -63 -69 -190 -136 -253 -247 -233 -33 7 -61 24
-245 151 -99 69 -173 108 -262 140 -97 35 -142 63 -205 125 -74 74 -137 209
-167 355 l-12 60 -234 9 c-232 8 -459 -2 -555 -24 -74 -18 -139 -13 -163 13
-47 50 -48 120 -4 161 24 21 136 67 312 127 527 181 1077 247 1645 198z m6
-324 c629 -66 1200 -273 1728 -627 356 -239 711 -585 977 -953 226 -311 398
-640 538 -1027 l35 -97 -32 -10 c-107 -34 -257 -61 -392 -70 -82 -6 -177 -13
-211 -17 -58 -6 -62 -5 -97 26 -21 18 -75 89 -121 159 -45 69 -100 146 -120
170 -45 54 -59 86 -76 176 -71 383 -108 471 -281 666 -98 110 -138 172 -214
333 -76 162 -104 259 -121 411 -15 140 -23 161 -84 203 -32 21 -40 22 -294 22
-289 0 -372 9 -546 61 -58 17 -125 36 -150 44 -25 7 -116 34 -202 59 -175 51
-187 53 -249 31 -77 -27 -125 -85 -165 -200 -12 -33 -26 -59 -31 -58 -5 1 -53
32 -107 68 -106 72 -221 132 -301 159 -112 36 -150 80 -160 185 -10 107 -33
171 -77 224 -22 27 -38 50 -36 52 25 25 580 32 789 10z m484 -949 c160 -56
264 -69 501 -64 l203 4 16 -75 c64 -304 199 -569 406 -800 77 -86 95 -113 111
-164 20 -66 72 -271 82 -326 l6 -34 -67 64 c-80 77 -111 99 -192 139 -145 72
-315 79 -451 17 -204 -92 -348 -298 -416 -592 l-6 -30 -13 40 c-18 56 -18 38
0 -39 37 -160 80 -546 60 -546 -4 0 -38 20 -75 45 -140 93 -388 195 -590 243
-84 20 -102 24 -210 43 -109 19 -388 39 -542 39 l-158 0 0 93 c1 283 63 520
186 703 93 141 202 224 344 263 357 99 748 -199 936 -714 18 -49 33 -82 34
-73 0 29 -74 228 -120 318 -66 130 -135 226 -235 326 -98 97 -185 155 -300
201 -64 25 -82 27 -205 28 -117 0 -144 -3 -200 -23 -340 -122 -564 -521 -573
-1022 -1 -55 -2 -100 -2 -100 0 -1 -62 -5 -138 -9 -75 -5 -143 -14 -150 -20
-10 -8 -37 15 -117 102 -312 337 -620 622 -787 732 l-43 28 0 84 c0 124 28
342 60 469 95 378 323 586 710 649 129 21 471 20 622 -1 191 -26 429 -94 586
-166 92 -41 150 -52 215 -38 105 21 194 97 250 211 l32 66 65 -18 c36 -10 110
-34 165 -53z m-3752 -418 c-4 -7 -24 -38 -44 -68 -94 -142 -164 -317 -201
-505 -19 -94 -22 -144 -23 -340 0 -208 2 -240 24 -330 27 -116 60 -202 113
-300 21 -38 66 -124 100 -190 53 -103 74 -132 147 -205 69 -69 103 -94 171
-127 159 -78 311 -112 530 -120 157 -5 194 1 446 75 95 28 212 56 260 62 49 6
132 20 184 31 52 10 131 19 176 19 112 0 133 -20 170 -158 27 -102 66 -132
174 -132 117 0 162 -40 169 -148 1 -7 25 -28 55 -47 65 -41 86 -69 86 -111 0
-40 -60 -133 -130 -199 -60 -58 -80 -92 -80 -136 0 -28 13 -45 90 -117 95 -89
151 -169 190 -267 12 -33 28 -65 35 -70 7 -6 26 -38 44 -72 117 -234 252 -411
436 -575 272 -243 586 -389 922 -428 118 -14 219 -4 369 36 284 75 623 264
841 468 l63 58 0 213 c0 317 26 459 120 645 99 197 249 362 560 615 134 109
188 164 246 251 70 105 113 200 159 349 20 66 46 144 57 173 11 29 18 55 16
58 -6 5 -156 -9 -275 -26 -335 -47 -420 -54 -467 -40 -52 16 -183 147 -303
305 -50 66 -103 131 -117 144 -14 14 -26 28 -26 33 0 4 18 17 39 28 22 11 47
30 55 42 9 12 16 17 16 11 0 -7 17 -32 39 -57 21 -24 77 -102 124 -173 104
-156 173 -225 248 -247 29 -9 67 -14 84 -11 16 3 118 12 225 20 107 8 220 21
250 28 180 47 204 50 243 34 47 -20 47 -34 2 -128 -24 -51 -40 -109 -54 -189
-28 -163 -36 -197 -70 -279 -80 -198 -198 -337 -438 -519 -206 -157 -373 -353
-477 -560 -65 -130 -68 -147 -76 -567 -6 -283 -12 -393 -23 -431 -39 -138
-123 -228 -294 -317 -145 -76 -166 -98 -171 -182 -2 -36 1 -123 7 -193 14
-153 15 -242 3 -383 -12 -154 -35 -183 -241 -313 -80 -51 -96 -65 -93 -86 1
-3 17 -52 37 -110 167 -485 127 -887 -112 -1110 -78 -73 -185 -128 -303 -155
-109 -25 -307 -31 -400 -11 -154 32 -303 130 -404 264 -52 68 -123 198 -151
274 -13 37 -27 53 -59 72 -59 35 -73 53 -100 137 -33 103 -56 159 -127 307
-132 275 -167 367 -209 552 -39 169 -98 300 -248 554 -35 60 -78 145 -95 190
-27 72 -30 93 -31 196 -1 129 15 192 84 330 59 118 80 198 80 304 0 70 -6 106
-24 156 -13 36 -33 90 -43 120 -11 30 -30 95 -42 145 -34 143 -66 201 -171
307 -51 51 -99 107 -106 125 -36 83 -1 185 93 275 84 81 84 81 9 130 -67 44
-95 80 -106 132 l-6 31 -89 6 c-173 13 -200 34 -252 204 -27 89 -7 89 -393
-16 -408 -112 -496 -129 -690 -129 -255 0 -438 46 -675 168 -106 55 -174 120
-268 255 -163 235 -256 450 -308 718 -18 92 -23 149 -23 294 0 224 13 308 61
395 81 145 209 331 331 483 49 61 75 86 55 55z m726 -709 c289 -90 672 -421
1281 -1108 89 -100 91 -103 34 -84 -60 20 -241 12 -368 -17 -50 -11 -107 -20
-129 -20 -49 0 -171 -29 -367 -88 l-155 -47 -160 1 c-175 1 -283 19 -409 70
l-65 26 -49 101 c-115 237 -168 507 -143 727 33 289 133 429 331 463 42 8 132
-3 199 -24z m3969 -184 c98 -23 233 -102 307 -179 36 -38 95 -110 95 -116 0
-4 -64 -50 -142 -103 -276 -183 -561 -433 -771 -674 -44 -51 -83 -93 -87 -93
-4 0 -10 17 -14 38 -30 166 -36 221 -36 317 0 417 182 743 455 811 68 17 118
16 193 -1z m503 -458 c53 -104 103 -258 125 -382 30 -177 18 -415 -30 -570 -8
-27 -14 -51 -11 -53 5 -5 49 136 66 213 21 91 18 436 -4 544 -9 46 -17 85 -17
87 0 3 27 -27 61 -66 135 -158 235 -238 323 -262 49 -13 161 -5 403 29 68 9
125 14 128 11 7 -7 -32 -113 -74 -198 -51 -105 -125 -194 -234 -283 -374 -306
-521 -469 -646 -711 -50 -97 -82 -188 -105 -301 -22 -103 -37 -340 -30 -452
l7 -98 -48 -40 c-215 -181 -501 -335 -745 -401 -186 -50 -403 -37 -610 38
-148 54 -273 123 -417 230 -212 158 -372 353 -514 627 -24 46 -64 123 -89 170
-58 112 -79 142 -158 223 l-65 66 29 29 c86 84 140 174 151 248 l6 45 49 -43
c198 -169 459 -289 666 -304 45 -3 82 -7 82 -8 0 -2 -14 -32 -30 -67 -108
-232 -60 -485 130 -678 139 -142 316 -225 548 -257 100 -14 133 -14 231 -4
460 50 781 336 781 696 -1 96 -13 145 -65 250 -51 104 -120 186 -208 249 -66
47 -204 119 -249 130 -33 7 -35 20 -10 38 35 24 90 113 112 178 12 36 24 99
26 140 2 41 1 66 -3 55 -3 -11 -14 -32 -25 -47 -26 -37 -84 -39 -116 -5 -85
90 -60 285 36 287 30 0 79 -34 87 -61 4 -11 9 -19 11 -17 5 6 -30 116 -52 163
-16 34 -84 140 -133 206 -12 17 -8 23 39 66 173 156 526 404 542 381 5 -7 27
-48 49 -91z m-2906 -362 c4 -33 9 -71 11 -85 7 -54 34 -169 57 -243 14 -42 24
-77 22 -77 -2 0 -56 62 -121 138 -65 75 -153 176 -197 225 -44 48 -75 88 -71
88 18 3 240 15 266 15 25 0 27 -4 33 -61z m1370 -165 c123 -61 218 -119 295
-180 l43 -34 -6 -136 c-7 -144 -23 -244 -56 -351 -21 -66 -21 -67 -77 -90 -83
-33 -192 -108 -268 -183 l-68 -66 -66 6 c-81 7 -245 60 -339 108 l-68 35 76 1
c163 1 317 89 394 227 29 53 66 173 64 213 -1 23 -2 22 -10 -7 -14 -49 -64
-93 -104 -93 -79 0 -140 100 -139 226 1 109 46 174 120 174 36 0 60 -15 89
-58 31 -46 31 -39 0 43 -29 79 -67 144 -120 210 -23 28 -44 55 -48 61 -12 20
162 -45 288 -106z m3053 -227 c35 -277 40 -676 12 -938 -18 -172 -61 -414
-101 -579 -43 -174 -116 -406 -128 -406 -4 0 -15 18 -25 40 -9 21 -37 57 -61
78 -112 99 -263 74 -379 -63 -64 -75 -133 -143 -211 -207 -33 -28 -86 -75
-118 -106 l-57 -55 15 42 c8 24 20 82 26 130 11 87 8 145 -22 468 -16 177 -1
323 44 418 104 218 238 371 487 557 94 71 244 222 311 313 63 87 128 216 159
318 13 42 27 77 31 77 3 0 11 -39 17 -87z m-6362 -355 c87 -6 159 -17 169 -24
12 -9 22 -47 36 -146 32 -230 38 -281 45 -374 6 -86 5 -92 -17 -112 -13 -13
-36 -22 -53 -22 -36 0 -147 21 -261 49 -43 11 -81 19 -83 17 -3 -4 3 -68 38
-371 11 -93 25 -210 30 -260 15 -130 13 -127 68 -121 26 2 81 7 123 11 107 10
109 8 109 -154 0 -71 2 -141 5 -157 10 -55 -1 -59 -141 -56 l-127 4 5 -237 c3
-130 8 -238 11 -241 2 -3 71 2 153 11 180 20 209 16 218 -26 11 -56 7 -194 -6
-212 -11 -15 -52 -18 -331 -28 -175 -6 -321 -9 -324 -5 -3 3 -1 68 5 144 25
292 11 881 -28 1242 -28 256 -83 674 -116 880 -2 14 -7 57 -10 97 l-7 72 34 5
c151 27 255 30 455 14z m-720 -103 c27 -8 55 -19 61 -23 17 -11 86 -372 122
-642 7 -47 16 -112 21 -145 21 -136 55 -443 69 -625 34 -418 39 -835 12 -904
-11 -28 -12 -29 -69 -22 -140 17 -172 22 -176 27 -3 3 -7 129 -8 280 -3 407
-15 521 -33 324 -3 -38 -11 -97 -16 -130 -22 -134 -31 -182 -39 -220 -5 -22
-11 -52 -14 -67 -10 -44 -32 -58 -90 -58 -112 0 -112 0 -145 109 -16 53 -43
148 -60 211 -80 309 -80 310 -89 310 -4 0 -7 -162 -7 -360 0 -312 -2 -361 -16
-375 -16 -16 -81 -28 -208 -40 l-73 -6 8 218 c12 294 10 681 -5 828 -22 231
-30 291 -66 520 -16 100 -84 454 -110 573 -10 47 -10 64 -2 67 7 3 61 16 120
30 132 30 173 32 186 7 6 -11 51 -145 101 -298 145 -442 165 -507 250 -819 32
-115 60 -203 63 -195 12 35 27 324 27 525 0 209 -8 386 -31 713 -14 198 -12
202 94 202 41 0 96 -7 123 -15z m1210 -51 c105 -44 235 -154 330 -280 145
-192 274 -537 320 -853 20 -144 21 -458 0 -571 -52 -288 -119 -409 -289 -520
-72 -48 -164 -70 -287 -70 -145 0 -130 -55 -130 488 0 572 -22 964 -85 1512
-9 74 -18 169 -22 210 -5 73 -5 76 18 87 35 17 101 15 145 -3z m3862 -113 c23
-7 42 -16 42 -20 0 -5 -18 -4 -40 1 -67 17 -185 -14 -249 -66 -8 -6 -27 -31
-43 -55 -64 -102 -16 -224 111 -283 71 -32 182 -36 251 -8 132 52 193 171 141
273 -23 46 -11 48 22 5 87 -116 72 -279 -36 -388 -89 -89 -197 -130 -345 -130
-190 0 -353 88 -412 223 -33 75 -30 190 6 256 93 172 326 252 552 192z m-6417
-186 c169 -74 370 -474 458 -910 42 -209 46 -250 45 -440 -1 -170 -4 -200 -27
-286 -30 -114 -88 -235 -140 -295 -51 -58 -145 -104 -211 -104 -99 1 -153 42
-214 165 -80 163 -107 289 -132 630 -6 77 -13 169 -15 205 -46 601 -25 897 73
995 52 53 105 66 163 40z m3433 -116 c24 -11 66 -89 66 -123 0 -8 4 -25 9 -38
5 -13 26 -77 46 -143 103 -340 158 -499 167 -485 2 3 10 16 18 30 166 284 211
350 239 350 13 0 49 -41 113 -127 52 -71 97 -134 102 -141 5 -9 -15 -37 -61
-85 -62 -67 -137 -169 -279 -384 l-54 -83 0 -112 c-1 -137 -25 -516 -35 -540
-8 -21 -2 -20 -135 -18 -62 1 -111 6 -119 13 -17 15 -10 183 19 407 5 41 12
121 16 177 7 112 7 111 -92 331 -13 29 -24 58 -24 65 0 7 -4 17 -9 22 -4 6
-13 24 -19 40 -6 17 -25 68 -42 115 -18 47 -60 166 -95 265 -35 99 -73 206
-84 237 -30 83 -28 114 12 151 35 33 103 67 157 78 52 10 57 10 84 -2z m-4032
-129 c61 -17 133 -92 178 -184 46 -95 89 -288 70 -311 -15 -18 -164 -115 -177
-115 -11 0 -33 81 -33 119 0 34 -31 108 -61 144 -41 49 -69 49 -97 -2 -44 -78
-92 -355 -92 -532 0 -108 25 -335 45 -412 28 -108 95 -207 140 -207 51 0 97
109 115 270 6 58 13 106 14 108 5 5 179 -44 211 -59 37 -17 42 -51 25 -159
-20 -130 -43 -193 -107 -292 -73 -112 -172 -158 -309 -143 -179 19 -329 227
-391 544 -23 121 -23 402 1 531 38 199 149 479 237 598 69 92 145 125 231 102z
m1228 -1984 c0 -73 -4 -98 -16 -110 -20 -21 -88 -21 -251 -1 -69 9 -128 13
-132 10 -9 -9 -8 -352 1 -361 4 -4 62 -10 128 -13 92 -5 123 -10 130 -21 11
-18 1 -251 -11 -264 -6 -6 -52 -3 -124 9 -63 10 -118 15 -122 12 -3 -4 -1
-105 5 -224 10 -177 15 -220 28 -230 19 -14 84 -35 193 -63 104 -26 139 -44
145 -73 7 -33 26 -259 26 -306 0 -34 -3 -41 -20 -41 -46 0 -273 158 -428 298
-117 106 -150 148 -163 213 -22 111 -39 330 -39 504 0 187 25 644 38 705 8 35
8 35 72 41 36 3 172 6 303 7 l237 2 0 -94z m3200 -8 c0 -127 -4 -143 -42 -159
-29 -12 -211 -8 -314 7 l-41 6 -6 -53 c-4 -30 -7 -121 -7 -203 l0 -149 48 7
c26 3 86 9 135 12 l87 7 -1 -69 c-1 -77 -12 -180 -21 -189 -3 -3 -59 -11 -124
-18 l-119 -12 -7 -135 c-4 -74 -5 -185 -2 -247 l6 -112 52 20 c28 11 94 41
146 66 52 25 109 46 125 47 l30 1 0 -134 0 -135 -65 -43 c-150 -101 -517 -303
-550 -303 -11 0 -12 82 -6 443 4 243 9 467 11 497 2 30 9 152 15 270 24 485
38 650 53 655 24 9 276 22 435 24 l162 1 0 -102z m-2311 75 c23 -6 23 -8 17
-77 -4 -39 -11 -127 -16 -196 -6 -69 -14 -177 -19 -240 -40 -488 -72 -1091
-71 -1346 0 -135 -2 -139 -84 -178 -94 -46 -122 -51 -135 -28 -5 10 -19 79
-31 153 -43 280 -79 501 -91 564 -45 239 -112 571 -116 575 -6 5 3 -682 14
-1007 l6 -203 -23 0 c-13 0 -74 25 -135 55 -109 54 -113 57 -119 93 -10 60 -7
710 4 1062 12 347 35 733 45 750 8 13 141 13 203 -1 l49 -10 22 -67 c30 -93
102 -390 157 -652 l19 -85 7 45 c3 25 7 106 8 180 0 98 23 578 30 629 0 5 229
-9 259 -16z m-1855 -9 c131 -33 187 -102 194 -240 l4 -82 -53 -15 c-88 -26
-151 -38 -166 -33 -8 3 -13 22 -13 48 0 65 -17 114 -54 153 -42 44 -74 45
-120 4 -55 -47 -89 -129 -94 -224 -4 -71 -2 -83 18 -107 12 -16 31 -28 44 -28
63 0 128 -32 187 -91 l59 -59 0 45 c0 25 4 45 8 45 16 0 118 -38 162 -60 83
-41 80 -35 79 -204 0 -83 -3 -169 -7 -191 -12 -66 -33 -59 -141 47 -53 52
-123 119 -156 149 -76 68 -282 215 -385 275 -43 25 -81 52 -84 61 -3 8 -10 12
-16 8 -5 -3 -19 14 -31 37 -31 60 -31 180 0 259 24 64 87 141 135 166 98 52
303 70 430 37z m2594 -2 c9 -6 12 -37 10 -118 l-3 -109 -105 -12 c-58 -6 -108
-12 -112 -12 -12 -1 -10 -933 3 -1409 9 -315 9 -430 0 -448 -17 -39 -68 -54
-180 -54 -94 0 -99 1 -105 23 -9 35 -6 1274 4 1586 5 157 8 287 5 289 -2 2
-49 6 -105 9 l-102 6 4 92 c5 136 -5 130 241 144 188 11 255 14 382 19 28 1
56 -2 63 -6z m476 -27 c88 -24 153 -61 207 -116 67 -69 91 -135 97 -274 8
-205 -38 -379 -142 -528 l-41 -58 22 -57 c12 -31 62 -163 111 -292 49 -129 99
-261 110 -292 l21 -57 -41 -48 c-112 -131 -198 -213 -223 -213 -19 0 -23 15
-121 460 -48 217 -90 398 -93 402 -4 4 -17 5 -29 1 l-23 -6 6 -306 c3 -168 10
-394 16 -501 9 -180 8 -195 -8 -211 -16 -15 -128 -45 -235 -64 l-38 -6 0 558
c0 631 18 1123 56 1523 11 119 4 114 158 107 72 -3 158 -13 190 -22z"/>
<path d="M6890 5337 c0 -14 4 -48 9 -74 5 -26 14 -82 21 -123 39 -255 133
-614 200 -763 l18 -40 114 -2 c186 -4 334 -49 463 -139 l64 -45 63 16 c91 23
313 23 398 -1 180 -49 327 -173 386 -326 9 -25 19 -47 20 -49 13 -16 181 233
240 355 80 167 94 213 93 311 -1 105 24 181 74 233 17 18 74 53 126 77 112 52
172 98 216 167 34 53 73 161 62 172 -3 4 -30 -14 -59 -38 -309 -260 -561 -389
-873 -449 -105 -20 -398 -17 -505 5 -249 53 -511 173 -730 334 -93 69 -253
223 -327 316 -32 39 -61 75 -65 81 -4 5 -8 -3 -8 -18z m379 -445 c245 -190
471 -295 756 -354 80 -16 402 -16 480 0 165 35 323 85 405 127 37 19 50 13 27
-13 -28 -31 -47 -91 -50 -154 l-2 -62 -113 -54 c-62 -30 -114 -53 -116 -51 -2
2 -13 51 -24 108 -12 57 -24 106 -27 109 -13 13 -15 -11 -5 -76 17 -105 11
-144 -23 -160 -33 -16 -192 -42 -258 -42 -54 0 -58 6 -61 110 -2 61 -2 59 -7
-25 l-6 -90 -40 -6 c-37 -6 -182 3 -267 17 l-38 6 -2 91 -1 92 -10 -87 c-9
-81 -12 -88 -32 -88 -35 0 -85 24 -150 73 -97 72 -113 94 -118 157 l-3 55 -2
-56 -2 -57 -37 5 c-54 6 -163 61 -173 86 -5 12 -11 42 -15 67 -9 68 -20 75
-20 12 0 -71 -6 -72 -120 -37 -75 24 -86 30 -91 53 -3 15 -12 50 -20 77 -21
75 -74 332 -74 356 0 18 14 9 73 -48 41 -38 115 -102 166 -141z"/>
<path d="M7170 4262 c0 -4 4 -12 9 -17 16 -18 78 -189 100 -275 19 -79 56
-265 96 -485 78 -435 110 -568 177 -755 112 -311 283 -492 516 -546 67 -16
263 -15 337 0 79 17 116 30 190 67 143 69 225 172 280 350 23 74 32 306 16
418 -38 264 -150 555 -296 766 -117 168 -279 287 -440 320 -79 17 -221 15
-289 -3 l-26 -7 40 -49 c94 -113 164 -276 171 -396 3 -48 -2 -44 -25 20 -58
163 -147 293 -271 398 -115 97 -331 179 -517 196 -38 4 -68 3 -68 -2z"/>
<path d="M4040 6607 c0 -16 5 -58 10 -95 146 -969 179 -1460 145 -2172 -3 -74
-2 -86 5 -55 6 22 13 193 16 380 9 486 -15 889 -81 1355 -8 58 -29 200 -45
315 -17 116 -30 224 -30 240 0 17 -5 37 -10 45 -8 12 -10 9 -10 -13z"/>
<path d="M3585 6448 c3 -51 11 -160 17 -243 15 -215 13 -853 -5 -990 -13 -104
-13 -125 -2 -113 13 13 35 358 35 553 1 250 -30 885 -42 885 -5 0 -6 -42 -3
-92z"/>
<path d="M2871 6393 c-1 -7 17 -103 39 -213 130 -653 172 -1089 150 -1565 -7
-148 -11 -292 -9 -320 2 -27 10 82 18 243 20 422 2 774 -59 1157 -5 33 -17
105 -25 160 -36 224 -111 580 -114 538z"/>
<path d="M4849 6496 c-3 -3 -2 -32 2 -64 4 -31 12 -109 19 -172 6 -63 15 -155
20 -205 5 -49 14 -144 20 -210 5 -66 18 -208 27 -315 13 -153 17 -310 18 -727
0 -292 3 -529 7 -527 11 7 2 1117 -10 1244 -6 63 -16 176 -22 250 -31 383 -70
737 -81 726z"/>
<path d="M5139 5836 c-2 -2 -1 -51 3 -108 3 -56 15 -245 26 -418 11 -173 23
-420 26 -549 3 -129 10 -239 14 -243 13 -13 95 80 125 142 52 106 61 159 61
370 1 125 -4 220 -12 265 -15 75 -47 197 -62 230 -4 11 -16 40 -25 65 -9 25
-26 61 -37 80 -22 37 -110 170 -113 170 -1 0 -4 -2 -6 -4z"/>
<path d="M5218 5768 c216 -316 269 -926 101 -1168 -19 -27 -24 -38 -11 -27 30
27 78 123 98 197 25 89 26 426 2 545 -19 92 -66 239 -99 311 -25 55 -105 184
-114 184 -3 0 7 -19 23 -42z"/>
<path d="M2216 5988 c-28 -155 -27 -382 4 -778 5 -69 15 -195 21 -280 6 -85
19 -202 30 -259 31 -161 107 -350 161 -397 18 -16 18 -13 -4 16 -75 100 -149
329 -162 500 -3 41 -10 131 -16 200 -42 531 -51 812 -29 951 11 70 7 110 -5
47z"/>
<path d="M2494 5579 c-28 -55 -37 -217 -25 -446 24 -441 32 -500 76 -550 23
-27 25 -27 52 -13 47 25 72 93 89 237 32 269 -31 664 -123 774 -32 37 -49 37
-69 -2z"/>
<path d="M5622 5983 c-6 -13 4 -55 35 -143 25 -69 69 -195 99 -280 57 -160
135 -360 210 -537 l44 -102 -10 -113 c-5 -62 -14 -162 -20 -223 -22 -225 -28
-306 -22 -328 4 -12 12 43 18 123 7 80 17 195 23 255 26 262 26 285 -3 346
-26 57 -147 354 -170 419 -41 111 -80 222 -96 270 -10 30 -37 106 -60 169 -23
64 -40 124 -37 137 5 28 1 31 -11 7z"/>
<path d="M1451 5527 c-59 -184 -81 -325 -81 -510 0 -187 28 -343 83 -474 42
-99 91 -174 153 -233 l47 -45 -54 63 c-153 176 -213 374 -212 697 0 203 14
301 68 478 18 62 32 113 30 115 -2 2 -17 -39 -34 -91z"/>
<path d="M2477 4063 c-24 -82 -47 -675 -36 -903 8 -152 33 -367 44 -379 7 -6
6 3 -10 124 -32 230 -29 763 6 1079 9 84 7 119 -4 79z"/>
<path d="M5672 3978 c-6 -46 -16 -177 -22 -293 -6 -115 -15 -271 -21 -345 -6
-74 -12 -353 -14 -620 -2 -305 0 -431 5 -340 4 80 8 289 9 465 1 176 5 372 11
435 5 63 12 169 15 235 3 66 12 214 20 329 8 116 13 211 11 213 -2 2 -9 -33
-14 -79z"/>
<path d="M3205 3908 c-3 -73 -11 -198 -16 -278 -5 -80 -11 -426 -13 -770 -1
-344 -2 -488 0 -320 3 369 21 984 34 1210 6 91 12 193 14 228 2 34 0 62 -4 62
-4 0 -11 -60 -15 -132z"/>
<path d="M3410 3407 c0 -4 9 -47 19 -95 51 -226 131 -656 171 -914 5 -38 14
-96 20 -130 5 -35 14 -97 21 -138 6 -41 16 -82 21 -90 7 -11 8 -8 4 10 -3 14
-8 45 -11 70 -8 62 -24 164 -35 230 -5 30 -17 100 -25 155 -14 88 -31 188 -65
375 -51 286 -118 578 -120 527z"/>
<path d="M4237 3740 c-23 -231 -36 -1525 -18 -1730 5 -47 9 231 9 624 1 390 7
806 13 926 11 222 9 316 -4 180z"/>
<path d="M4847 3990 c-18 -152 -33 -387 -52 -815 -10 -240 -18 -1252 -9 -1258
5 -3 8 69 5 176 -4 212 15 1129 29 1362 6 88 12 201 15 250 3 50 10 133 16
186 6 52 9 109 7 125 -3 21 -6 15 -11 -26z"/>
<path d="M5036 3728 c-5 -63 -25 -399 -26 -435 0 -16 58 -17 97 -2 79 29 133
185 119 341 -5 46 -15 87 -27 107 -22 36 -72 61 -123 61 l-34 0 -6 -72z"/>
</g>
</svg>
